<?xml version="1.0" encoding="UTF-8"?>
<!DOCTYPE svg PUBLIC "-//W3C//DTD SVG 1.1//EN" "http://www.w3.org/Graphics/SVG/1.1/DTD/svg11.dtd">
<svg xmlns="http://www.w3.org/2000/svg" version="1.1" width="692px" height="204px" style="shape-rendering:geometricPrecision; text-rendering:geometricPrecision; image-rendering:optimizeQuality; fill-rule:evenodd; clip-rule:evenodd" xmlns:xlink="http://www.w3.org/1999/xlink">
<g><path style="opacity:1" fill="#f4f4f4" d="M 521.5,-0.5 C 531.167,-0.5 540.833,-0.5 550.5,-0.5C 550.333,42.5013 550.5,85.5013 551,128.5C 551.833,130.667 553.333,132.167 555.5,133C 559.357,133.758 563.023,133.258 566.5,131.5C 567.492,138.648 567.825,145.981 567.5,153.5C 562.751,155.952 557.584,156.952 552,156.5C 537.287,157.655 527.62,151.322 523,137.5C 521.525,91.5389 521.025,45.5389 521.5,-0.5 Z"/></g>
<g><path style="opacity:0.999" fill="#fbfbfe" d="M -0.5,59.5 C -0.5,58.8333 -0.5,58.1667 -0.5,57.5C 38.2595,39.3706 77.0929,21.3706 116,3.5C 155.366,21.4332 194.532,39.7665 233.5,58.5C 194.531,77.5678 155.364,96.2345 116,114.5C 77.1116,96.2606 38.2783,77.9273 -0.5,59.5 Z M 114.5,24.5 C 139.526,35.1788 164.192,46.6788 188.5,59C 164.713,69.7265 141.047,80.7265 117.5,92C 114.076,91.6395 110.742,90.6395 107.5,89C 86.1667,79 64.8333,69 43.5,59C 67.2271,47.4689 90.8938,35.9689 114.5,24.5 Z"/></g>
<g><path style="opacity:1" fill="#fdfdfd" d="M 299.5,5.5 C 332.167,5.5 364.833,5.5 397.5,5.5C 397.5,13.8333 397.5,22.1667 397.5,30.5C 374.5,30.5 351.5,30.5 328.5,30.5C 328.5,41.8333 328.5,53.1667 328.5,64.5C 351.167,64.5 373.833,64.5 396.5,64.5C 396.5,72.1667 396.5,79.8333 396.5,87.5C 373.661,87.1692 350.994,87.5025 328.5,88.5C 327.503,109.994 327.169,131.66 327.5,153.5C 318.167,153.5 308.833,153.5 299.5,153.5C 299.5,104.167 299.5,54.8333 299.5,5.5 Z"/></g>
<g><path style="opacity:0.502" fill="#616161" d="M 299.5,5.5 C 332.329,4.50172 365.329,4.16839 398.5,4.5C 398.826,13.3494 398.493,22.0161 397.5,30.5C 397.5,22.1667 397.5,13.8333 397.5,5.5C 364.833,5.5 332.167,5.5 299.5,5.5 Z"/></g>
<g><path style="opacity:1" fill="#f6f6f6" d="M 661.5,49.5 C 661.821,51.0481 662.821,51.7148 664.5,51.5C 671.474,55.4744 677.14,60.8077 681.5,67.5C 681.427,69.0269 682.094,70.0269 683.5,70.5C 687.344,76.3724 690.01,82.7057 691.5,89.5C 691.5,96.8333 691.5,104.167 691.5,111.5C 680.766,144.89 657.766,159.724 622.5,156C 597.55,150.05 582.383,134.55 577,109.5C 574.455,74.7298 589.955,52.8965 623.5,44C 636.778,42.0628 649.444,43.8961 661.5,49.5 Z M 659.5,83.5 C 659.932,84.7095 660.599,85.7095 661.5,86.5C 666.178,99.101 664.512,110.768 656.5,121.5C 654.5,122.833 652.833,124.5 651.5,126.5C 632.971,136.492 618.137,132.492 607,114.5C 600.742,98.2234 604.242,84.3901 617.5,73C 634.661,63.9976 648.661,67.4976 659.5,83.5 Z"/></g>
<g><path style="opacity:0.502" fill="#767676" d="M 434.5,47.5 C 424.402,46.1829 414.402,46.1829 404.5,47.5C 403.957,47.44 403.624,47.1067 403.5,46.5C 408.667,46.1667 413.833,45.8333 419,45.5C 424.546,45.5054 429.712,46.1721 434.5,47.5 Z"/></g>
<g><path style="opacity:0.502" fill="#7a7a7a" d="M 509.5,48.5 C 505.217,47.1734 500.551,46.5067 495.5,46.5C 490.421,46.5248 485.421,46.8582 480.5,47.5C 490.111,45.5257 500.111,44.859 510.5,45.5C 510.737,46.791 510.404,47.791 509.5,48.5 Z"/></g>
<g><path style="opacity:1" fill="#f5f5f5" d="M 434.5,47.5 C 442.423,69.4337 450.256,91.4337 458,113.5C 465.213,91.3601 472.713,69.3601 480.5,47.5C 485.421,46.8582 490.421,46.5248 495.5,46.5C 500.551,46.5067 505.217,47.1734 509.5,48.5C 493.775,90.8366 477.942,133.17 462,175.5C 454.145,195.51 439.645,203.677 418.5,200C 415.335,192.671 412.668,185.171 410.5,177.5C 410.5,176.167 411.167,175.5 412.5,175.5C 431.477,180.55 442.143,173.216 444.5,153.5C 431.166,118.166 417.833,82.8325 404.5,47.5C 414.402,46.1829 424.402,46.1829 434.5,47.5 Z"/></g>
<g><path style="opacity:0.937" fill="#777777" d="M 661.5,49.5 C 662.71,49.9321 663.71,50.5987 664.5,51.5C 662.821,51.7148 661.821,51.0481 661.5,49.5 Z"/></g>
<g><path style="opacity:0.561" fill="#777777" d="M 681.5,67.5 C 682.906,67.9731 683.573,68.9731 683.5,70.5C 682.094,70.0269 681.427,69.0269 681.5,67.5 Z"/></g>
<g><path style="opacity:0.999" fill="#fbfbfe" d="M -0.5,80.5 C 38.2645,98.2986 77.0979,115.965 116,133.5C 155.127,115.685 194.294,98.0185 233.5,80.5C 233.83,87.5316 233.497,94.5316 232.5,101.5C 193.727,119.637 154.893,137.637 116,155.5C 77.0805,137.623 38.2472,119.623 -0.5,101.5C -0.5,94.5 -0.5,87.5 -0.5,80.5 Z"/></g>
<g><path style="opacity:0.937" fill="#777777" d="M 659.5,83.5 C 661.048,83.8212 661.715,84.8212 661.5,86.5C 660.599,85.7095 659.932,84.7095 659.5,83.5 Z"/></g>
<g><path style="opacity:0.502" fill="#7f7f7f" d="M 396.5,64.5 C 397.492,72.3159 397.826,80.3159 397.5,88.5C 374.5,88.5 351.5,88.5 328.5,88.5C 350.994,87.5025 373.661,87.1692 396.5,87.5C 396.5,79.8333 396.5,72.1667 396.5,64.5 Z"/></g>
<g><path style="opacity:0.999" fill="#fbfbfe" d="M -0.5,120.5 C 38.2625,138.631 77.0958,156.631 116,174.5C 154.878,156.645 193.711,138.645 232.5,120.5C 233.812,127.724 233.812,134.891 232.5,142C 193.836,160.221 155.002,178.054 116,195.5C 77.1002,177.925 38.2668,160.258 -0.5,142.5C -0.5,135.167 -0.5,127.833 -0.5,120.5 Z"/></g>
<g><path style="opacity:0.812" fill="#848484" d="M 656.5,121.5 C 655.833,124.167 654.167,125.833 651.5,126.5C 652.833,124.5 654.5,122.833 656.5,121.5 Z"/></g>
<g><path style="opacity:0.251" fill="#3d3d3d" d="M 566.5,131.5 C 566.56,130.957 566.893,130.624 567.5,130.5C 568.82,138.323 568.82,145.99 567.5,153.5C 567.825,145.981 567.492,138.648 566.5,131.5 Z"/></g>
<g><path style="opacity:0.251" fill="#585858" d="M 328.5,88.5 C 328.5,110.5 328.5,132.5 328.5,154.5C 318.652,154.827 308.986,154.494 299.5,153.5C 308.833,153.5 318.167,153.5 327.5,153.5C 327.169,131.66 327.503,109.994 328.5,88.5 Z"/></g>
<g><path style="opacity:0.561" fill="#666666" d="M 412.5,175.5 C 411.167,175.5 410.5,176.167 410.5,177.5C 409.596,176.791 409.263,175.791 409.5,174.5C 410.791,174.263 411.791,174.596 412.5,175.5 Z"/></g>
</svg>
